# xmcd CD database file
#
# Track frame offsets:
#	154
#	21457
#	46247
#	67100
#	81802
#	97852
#	132361
#	151467
#	171567
#	188467
#	208059
#	232043
#	247509
#	264174
#	293959
#	309581
#
# Disc length: 4434 seconds
#
# Revision: 1
# Processed by: cddbd v1.5PL3 Copyright (c) Steve Scherf et al.
# Submitted via: CDex 1.51
#
DISCID=da115010
DTITLE=Varios - Lo mejor del año
DYEAR=2003
DGENRE=Salsa
TTITLE0=Se te acaba la rumba - Maraca
TTITLE1=Que cosas tiene la vida - Pupy y los son son
TTITLE2=Mentira - Manolito Simonet
TTITLE3=La pistola - Carlos Manuel
TTITLE4=Te desearé - Carlos FG
TTITLE5=Tim Pop - Los Van Van
TTITLE6=Acaramelao - Yumuri
TTITLE7=Corazòn corazòn - Issac Delgado
TTITLE8=Colombia - Polo Montañez
TTITLE9=Babalao - Polo Montañez
TTITLE10=Orden del dia - Issac Delgado
TTITLE11=La manzana - Carlos Manuel
TTITLE12=Assere - Orishas
TTITLE13=Obbatala ayacuna - Maraca
TTITLE14=Quién me quiere a mi - David Torrens
TTITLE15=El pregonero - Pupy y los que son son
EXTD=YEAR: 2003
EXTT0=
EXTT1=
EXTT2=
EXTT3=
EXTT4=
EXTT5=
EXTT6=
EXTT7=
EXTT8=
EXTT9=
EXTT10=
EXTT11=
EXTT12=
EXTT13=
EXTT14=
EXTT15=
PLAYORDER=
